<svg xmlns="http://www.w3.org/2000/svg" version="1.1" xmlns:xlink="http://www.w3.org/1999/xlink" xmlns:svgjs="http://svgjs.com/svgjs" height="58.731015777587885" width="296.08068084716797"><g id="SvgjsG1434" rel="mainfill" name="main_text" xmlns:name="main_text" transform="translate(85.4306942820549,-193.66949577331542)" fill="#333333"><path d="M5.47 226.13C5.47 224.50 6.93 223.42 10.33 223.42C13.09 223.42 15.07 224.41 15.07 226.22C15.07 226.57 15.24 227.13 15.85 227.13C16.45 227.13 16.62 226.87 16.62 225.92C16.62 224.03 14.98 222.00 10.25 222.00C4.44 222.00 2.37 224.54 2.37 226.87C2.37 229.32 4.44 230.91 8.96 232.29C12.75 233.45 14.21 234.57 14.21 236.08C14.21 237.50 13.05 239.18 9.26 239.18C3.40 239.18 0.82 235.65 0.82 233.24C0.82 232.72 0.52 232.51 0.22 232.51C-0.09 232.51-0.43 232.72-0.43 233.33C-0.43 235.65 1.77 240.30 9.21 240.30C16.06 240.30 17.91 237.85 17.91 235.18C17.91 232.98 15.46 231.04 11.11 229.75C7.79 228.76 5.47 227.69 5.47 226.13ZM29.37 222.69C29.37 222.47 28.81 222.26 27.90 222.26C26.91 222.26 26.18 222.47 25.96 222.56C25.79 222.99 23.04 228.80 20.50 232.81C20.41 232.98 20.28 233.20 20.28 233.37C20.28 233.84 20.58 233.89 20.84 233.89C20.97 233.89 21.10 233.80 21.23 233.63C22.69 231.52 24.63 227.73 25.84 225.06C25.71 227.64 25.58 230.44 25.58 233.89C25.58 237.93 26.35 240.17 29.28 240.17C32.04 240.17 34.96 235.74 36.47 233.37C36.60 233.20 36.64 233.02 36.64 232.81C36.64 232.59 36.39 232.42 36.17 232.42C36.00 232.42 35.78 232.51 35.57 232.85C34.58 234.40 31.82 238.67 30.31 238.67C29.24 238.67 29.24 237.89 29.24 236.47C29.24 233.20 29.37 222.69 29.37 222.69ZM26.44 211.93C26.44 211.93 26.70 212.74 26.70 213.48C26.70 215.63 26.44 216.27 26.14 217.52C27.43 217.48 30.31 215.24 30.31 212.31C30.31 211.54 30.18 211.02 30.01 210.63ZM43.88 220.71C46.03 216.02 47.88 210.94 47.88 208.52C47.88 206.46 46.98 205.25 45.00 205.25C43.10 205.25 40.30 205.77 40.30 213.48C40.30 216.92 40.39 223.94 40.39 223.94C38.54 227.90 36.60 231.26 35.74 232.59C35.57 232.85 35.35 233.15 35.35 233.37C35.35 233.67 35.52 233.97 35.74 233.97C35.91 233.97 36.13 233.89 36.47 233.33C37.03 232.64 38.88 229.28 40.48 226.01L40.48 229.45C40.52 237.55 40.52 240.22 44.31 240.22C46.98 240.22 49.39 236.86 51.54 233.58C51.80 233.20 51.84 232.94 51.84 232.81C51.84 232.51 51.67 232.34 51.46 232.34C51.33 232.34 51.15 232.38 50.90 232.72C49.43 234.66 47.19 238.75 45.08 238.75C44.22 238.75 43.83 237.98 43.83 235.69C43.83 233.02 43.88 231.47 43.88 229.54ZM43.92 211.37C43.92 206.80 44.05 206.28 45.04 206.28C46.29 206.28 46.72 207.19 46.72 208.35C46.72 210.98 45.47 214.29 43.88 218.34ZM58.13 222.43C58.13 222.26 58.04 222.17 57.87 222.17C57.05 222.17 54.73 223.98 54.73 224.71C54.73 225.06 54.73 225.14 54.77 225.49C53.82 227.47 52.23 230.66 50.77 232.94C50.68 233.11 50.55 233.28 50.55 233.45C50.55 233.93 50.85 233.97 51.11 233.97C51.24 233.97 51.37 233.89 51.50 233.71C52.70 231.95 54.04 229.45 55.12 227.21C56.62 232.51 62.13 238.11 63.08 240.82C63.08 240.82 73.72 231.22 73.72 226.44C73.72 222.86 71.69 222.00 70.66 222.00C70.10 222.00 67.86 223.68 67.86 223.68C67.86 223.68 70.83 224.28 70.83 227.69C70.83 229.45 70.53 230.66 69.07 232.81C68.38 233.80 65.02 237.42 65.02 237.42C61.83 231.52 58.13 228.29 58.13 222.43ZM82.50 231.65C84.44 231.09 95.38 227.94 95.38 227.08C95.38 224.63 93.22 222.22 88.44 222.22C86.42 222.22 84.27 222.60 82.50 223.72C80.13 225.19 78.45 227.94 78.45 231.73C78.45 237.55 82.42 240.39 88.01 240.39C93.96 240.39 97.49 237.42 99.94 233.63C100.07 233.41 100.24 232.98 100.24 232.77C100.24 232.42 100.03 232.29 99.85 232.29C99.64 232.29 99.47 232.34 99.29 232.59C97.23 235.82 94.52 238.97 89.00 238.97C85.26 238.97 82.63 236.68 82.50 231.65ZM88.06 223.38C90.47 223.38 91.72 225.53 91.72 227.38C89.91 228.46 85.04 229.71 82.50 230.48C82.67 224.67 86.51 223.38 88.06 223.38ZM99.90 233.58C101.66 230.79 102.57 228.59 103.56 226.09C103.56 226.09 104.72 228.89 108.34 228.89C111.57 228.89 116.43 225.70 118.15 224.33C118.15 224.33 110.62 230.83 110.62 235.87C110.62 239.22 112.77 240.34 115.48 240.34C119.96 240.34 122.85 236.86 125.04 233.67C125.39 233.20 125.43 232.94 125.43 232.72C125.43 232.46 125.26 232.29 125.04 232.29C124.87 232.29 124.66 232.29 124.44 232.64C122.42 235.78 119.58 238.92 117.04 238.92C115.10 238.92 114.58 237.16 114.58 235.31C114.58 230.05 119.62 223.68 120.09 222.86C120.09 222.86 120.09 222.26 119.36 222.26C118.97 222.26 118.67 222.43 118.20 222.99C116.52 225.02 113.12 225.70 110.96 225.70C107.00 225.70 105.75 223.47 105.50 222.17C105.41 222.09 105.15 221.96 104.76 221.96C103.69 221.96 103.69 222.65 103.13 224.15C101.66 228.16 100.80 229.92 99.17 232.81C98.99 233.07 98.95 233.20 98.95 233.37C98.95 233.63 99.25 233.84 99.42 233.84C99.55 233.84 99.73 233.84 99.90 233.58ZM143.56 225.49C141.11 229.49 137.40 233.84 135.51 235.52C134.34 235.09 132.49 234.66 130.94 234.66C129.26 234.66 127.93 235.78 127.93 237.50C127.93 239.70 129.52 240.13 130.51 240.13C131.42 240.13 132.84 239.70 134.22 238.36C136.71 239.27 140.29 240.22 142.18 240.22C146.36 240.22 149.76 234.45 150.32 233.45C150.49 233.15 150.54 233.02 150.54 232.90C150.54 232.77 150.32 232.51 150.02 232.51C149.72 232.51 149.50 232.81 149.24 233.20C148.25 234.70 146.14 237.67 143.73 237.67C141.84 237.67 139.00 236.77 136.76 235.91C139.90 232.85 143.56 227.94 145.24 224.89C145.84 223.77 146.32 222.60 146.32 222.22C146.32 221.87 146.06 221.74 145.76 221.74C145.15 221.74 144.94 222.73 144.25 223.94C143.52 224.33 142.35 224.80 139.73 224.80C134.56 224.80 131.03 221.96 130.47 221.96C129.87 221.96 129.22 222.47 128.88 223.51C127.54 227.25 125.95 230.31 124.48 232.64C124.18 233.07 124.14 233.37 124.14 233.50C124.14 233.76 124.31 234.01 124.53 234.01C124.74 234.01 124.96 233.89 125.13 233.58C126.38 231.65 127.89 228.89 129.26 225.62C129.26 225.62 131.55 227.60 135.85 227.60C141.23 227.60 143.56 225.49 143.56 225.49ZM130.51 239.31C129.57 239.31 128.96 238.79 128.96 238.02C128.96 237.67 129.13 237.33 130.51 237.33C131.24 237.33 132.19 237.63 133.23 237.98C132.32 238.88 131.37 239.31 130.51 239.31ZM158.33 222.69C158.33 222.47 157.77 222.26 156.86 222.26C155.87 222.26 155.14 222.47 154.93 222.56C154.75 222.99 152.00 228.80 149.46 232.81C149.37 232.98 149.24 233.20 149.24 233.37C149.24 233.84 149.54 233.89 149.80 233.89C149.93 233.89 150.06 233.80 150.19 233.63C151.65 231.52 153.59 227.73 154.80 225.06C154.67 227.64 154.54 230.44 154.54 233.89C154.54 237.93 155.31 240.17 158.24 240.17C161.00 240.17 163.93 235.74 165.43 233.37C165.56 233.20 165.61 233.02 165.61 232.81C165.61 232.59 165.35 232.42 165.13 232.42C164.96 232.42 164.74 232.51 164.53 232.85C163.54 234.40 160.78 238.67 159.28 238.67C158.20 238.67 158.20 237.89 158.20 236.47C158.20 233.20 158.33 222.69 158.33 222.69ZM155.40 211.93C155.40 211.93 155.66 212.74 155.66 213.48C155.66 215.63 155.40 216.27 155.10 217.52C156.39 217.48 159.28 215.24 159.28 212.31C159.28 211.54 159.15 211.02 158.97 210.63ZM169.40 223.42C169.31 223.59 167.16 228.93 164.53 232.81C164.44 232.98 164.31 233.20 164.31 233.37C164.31 233.84 164.62 233.89 164.87 233.89C165.00 233.89 165.13 233.80 165.26 233.63C166.81 231.39 168.32 228.37 169.44 225.83C169.48 230.05 169.65 238.41 169.65 239.48C169.65 240 170.17 240.13 170.82 240.13C171.81 240.13 173.23 239.78 173.23 239.78L173.40 226.91C175.21 226.13 180.98 224.24 183.22 224.24C184.64 224.24 184.64 225.45 184.64 226.18C184.64 228.76 184.72 239.01 184.72 239.74C184.72 240.04 185.15 240.17 185.71 240.17C186.83 240.17 188.38 239.74 188.38 239.74C188.38 239.74 188.38 230.79 188.38 227.13C188.69 226.95 194.71 224.24 197.73 224.24C199.24 224.24 199.71 224.50 199.71 226.01C199.71 226.01 199.49 234.19 199.49 236.60C199.49 239.05 200.44 240.34 202.98 240.34C205.44 240.34 207.20 238.19 210.34 233.58C210.65 233.11 210.65 232.85 210.65 232.64C210.65 232.42 210.43 232.25 210.26 232.25C210.09 232.25 209.91 232.25 209.57 232.77C206.99 236.68 205.01 239.05 204.01 239.05C203.41 239.05 203.15 238.62 203.15 236.60C203.15 234.92 203.41 227.73 203.41 225.70C203.41 224.03 202.42 222.30 199.71 222.30C196.44 222.30 188.34 225.92 188.34 225.92C188.34 225.92 188.34 225.92 188.34 225.02C188.34 223.85 187.61 222.30 184.94 222.30C182.27 222.30 175.47 224.80 173.44 225.66L173.49 222.95C173.57 222.95 172.75 222.82 171.85 222.82C170.39 222.82 169.57 223.16 169.40 223.42Z" fill="#333333" style="fill: rgb(51, 51, 51);"></path></g><defs id="SvgjsDefs1433"></defs><g id="SvgjsG1435" rel="mainfill" name="symbol" xmlns:name="symbol_mainfill" transform="translate(0,-6.999256324768066) scale(0.7)" fill="#333333"><g transform="translate(0 10)" fill="#333333"><path fill="#333333" d="M95.59,35.661l-10.268,0.015l2.043-3.223c1.301-2.052,0.693-4.768-1.358-6.066c-2.055-1.305-4.771-0.692-6.071,1.354L74.9,35.69l-17.305,0.025l8.646-15.185l11.939-0.649c2.431-0.131,4.29-2.2,4.156-4.631c-0.13-2.425-2.2-4.287-4.631-4.151l-6.288,0.337l2.77-4.863c1.201-2.11,0.464-4.792-1.646-5.998c-2.113-1.201-4.794-0.464-6,1.652l-2.785,4.891l-1.718-3.115c-1.168-2.132-3.845-2.903-5.978-1.73c-2.123,1.171-2.896,3.847-1.726,5.973l4.314,7.84L50,31.277l-8.65-15.19l4.314-7.84c1.17-2.126,0.398-4.802-1.726-5.973c-2.133-1.172-4.809-0.401-5.977,1.73l-1.718,3.115l-2.785-4.891c-1.206-2.116-3.887-2.853-6-1.652c-2.109,1.205-2.847,3.887-1.646,5.998l2.77,4.863L22.293,11.1c-2.43-0.136-4.501,1.726-4.631,4.151c-0.134,2.431,1.726,4.5,4.157,4.631l11.939,0.649l8.646,15.185L25.099,35.69l-5.036-7.949c-1.3-2.046-4.016-2.659-6.071-1.354c-2.051,1.298-2.659,4.014-1.358,6.066l2.042,3.223L4.41,35.661c-2.43,0-4.402,1.966-4.41,4.396c0,2.427,1.963,4.405,4.39,4.405l10.112,0.015l-3.192,5.13c-1.28,2.059-0.649,4.769,1.412,6.062c2.062,1.279,4.777,0.65,6.057-1.42l6.074-9.756l17.58,0.025l-8.402,14.699l-9.079,0.521c-2.425,0.147-4.28,2.218-4.139,4.642c0.141,2.424,2.217,4.288,4.641,4.139l3.37-0.192l-5.137,8.986c-1.2,2.114-0.468,4.801,1.639,6.002c2.106,1.213,4.793,0.48,6-1.636l5.335-9.332l3.155,5.662c1.185,2.129,3.86,2.894,5.984,1.704c2.118-1.178,2.887-3.854,1.704-5.979l-5.742-10.312l8.225-14.389L50,49.056l0.013-0.023l8.226,14.389l-5.741,10.312c-1.183,2.125-0.414,4.801,1.704,5.979c2.123,1.189,4.798,0.425,5.983-1.704l3.155-5.662l5.335,9.332c1.205,2.116,3.893,2.849,5.999,1.636c2.107-1.201,2.839-3.888,1.639-6.002l-5.137-8.986l3.369,0.192c2.425,0.149,4.501-1.715,4.642-4.139c0.142-2.424-1.714-4.494-4.14-4.642l-9.079-0.521l-8.401-14.699l17.58-0.025l6.073,9.756c1.28,2.07,3.996,2.699,6.057,1.42c2.061-1.293,2.693-4.003,1.413-6.062l-3.193-5.13l10.113-0.015c2.427,0,4.391-1.978,4.391-4.405C99.991,37.627,98.02,35.661,95.59,35.661z" style="fill: rgb(51, 51, 51);"></path></g></g></svg>